<svg width="1193" height="124" viewBox="0 0 1193 124" fill="none" xmlns="http://www.w3.org/2000/svg">
<g clip-path="url(#clip0_5_3937)">
<path d="M688.942 121.752V2.11227H690.854C718.59 2.11227 746.319 2.06232 774.054 2.13368C785.744 2.16222 797.369 3.07561 808.683 6.33671C819.21 9.36945 828.328 14.5572 834.506 24.0123C838.756 30.5202 840.967 37.8202 841.668 45.4627C842.724 57.0442 842.958 68.6828 841.399 80.2429C840.124 89.7336 836.936 98.4822 830.113 105.532C825.643 110.156 820.28 113.382 814.336 115.694C805.991 118.941 797.284 120.546 788.4 121.039C780.345 121.481 772.262 121.688 764.193 121.717C739.886 121.802 715.572 121.745 691.265 121.745C690.557 121.745 689.855 121.745 688.942 121.745V121.752ZM704.513 108.587H706.263C727.566 108.587 748.869 108.665 770.172 108.551C780.714 108.494 791.213 107.716 801.414 104.669C808.13 102.664 814.166 99.5597 818.743 94.0222C823.22 88.6133 824.984 82.141 825.827 75.3762C826.94 66.4635 826.925 57.508 825.827 48.5953C825.218 43.6716 824.077 38.8549 821.69 34.4235C817.312 26.3029 810.178 21.8501 801.676 19.2455C792.346 16.384 782.711 15.4635 773.041 15.3779C750.739 15.1923 728.43 15.2922 706.128 15.2779C705.618 15.2779 705.101 15.335 704.513 15.3707V108.587Z" fill="#19362B"/>
<path d="M255.848 124C244.909 123.372 233.95 123.001 223.04 122.038C214.035 121.238 205.279 118.998 197.167 114.816C187.773 109.971 181.149 102.614 177.572 92.5166C175.113 85.5734 174.079 78.4018 174.022 71.109C173.959 62.5745 174.015 54.0186 174.54 45.5055C175.036 37.4491 177.274 29.7495 181.652 22.8776C186.633 15.0567 193.88 10.0759 202.367 6.75059C211.443 3.19692 220.936 1.46291 230.592 1.07044C243.259 0.563789 255.947 0.378257 268.621 0.44248C280.126 0.499567 291.589 1.42723 302.747 4.60269C312.743 7.4499 321.719 11.9883 328.208 20.5228C332.367 25.996 334.889 32.2328 335.98 38.9405C336.851 44.2924 337.326 49.7585 337.447 55.1817C337.617 62.5245 337.631 69.9101 337.085 77.2315C336.228 88.7774 332.905 99.4598 324.262 107.766C317.879 113.903 310.065 117.321 301.663 119.562C291.943 122.152 282.004 123.108 271.986 123.322C266.623 123.436 261.253 123.344 255.883 123.344C255.876 123.565 255.862 123.779 255.855 124H255.848ZM255.947 13.3013C248.409 13.601 240.864 13.758 233.341 14.2361C225.64 14.7285 218.059 16.0272 210.812 18.8602C205.499 20.9367 200.943 24.0265 197.359 28.5649C193.179 33.8597 191.408 40.0608 190.579 46.583C189.367 56.088 189.544 65.6429 190.303 75.1621C190.699 80.1644 191.755 85.1024 193.909 89.6979C197.762 97.9113 204.386 102.871 212.746 105.732C222.338 109.022 232.313 109.971 242.345 110.142C252.66 110.321 262.982 110.214 273.297 109.957C281.189 109.757 289.003 108.679 296.612 106.439C310.249 102.435 318.368 93.6155 320.621 79.2938C321.889 71.2517 321.677 63.2096 321.528 55.1603C321.443 50.7503 320.883 46.3047 320.068 41.959C318.602 34.1238 314.84 27.5374 308.244 22.8848C302.031 18.5034 294.883 16.5624 287.515 15.3279C277.066 13.5796 266.517 13.4226 255.94 13.2799L255.947 13.3013Z" fill="#19362B"/>
<path d="M887.618 68.3403V108.587H1002.41V121.638H872.032V2.22645H1002.37V15.2423H887.632V55.1746H1002.35V68.3331H887.625L887.618 68.3403Z" fill="#19362B"/>
<path d="M577.567 5.57904e-05C587.336 0.463887 597.24 0.699371 607.102 1.46291C616.765 2.21218 626.173 4.31012 635.022 8.54169C648.121 14.8141 655.29 25.4822 657.933 39.5328C659.789 49.3874 659.505 59.3705 659.236 69.3108C659.088 74.7911 658.613 80.3285 657.571 85.7019C654.568 101.101 645.5 111.505 630.941 117.121C621.908 120.603 612.486 122.387 602.894 122.78C590.113 123.301 577.312 123.451 564.524 123.422C554.62 123.401 544.737 122.63 535.039 120.396C526.835 118.513 519.014 115.73 512.213 110.506C506.333 105.989 502.259 100.209 499.645 93.2944C496.91 86.0729 495.841 78.5517 495.841 70.8878C495.841 62.7101 495.699 54.5038 496.244 46.3475C496.995 35.1799 500.339 24.8757 508.401 16.6552C512.602 12.3737 517.668 9.37659 523.165 7.12165C531.277 3.80347 539.785 2.00524 548.478 1.39869C558.113 0.727915 567.769 0.449616 577.567 -0.00708008V5.57904e-05ZM576.192 110.742C586.04 110.228 594.817 109.928 603.56 109.257C610.722 108.708 617.729 107.181 624.338 104.198C632.06 100.716 637.579 95.1212 640.42 87.022C642.659 80.6354 643.381 73.999 643.445 67.277C643.53 58.0432 643.799 48.7951 641.348 39.7397C639.216 31.8474 634.887 25.625 627.824 21.479C620.449 17.1404 612.245 15.5777 603.914 14.5786C592.876 13.2585 581.775 13.3299 570.702 13.6153C562.484 13.8294 554.252 14.4787 546.076 15.3707C539.58 16.0772 533.296 17.9468 527.565 21.2507C519.559 25.8604 515.075 32.9963 513.162 41.9447C511.412 50.1295 511.341 58.4286 511.667 66.7204C511.866 71.8368 512.326 76.9961 513.268 82.0197C515.167 92.117 520.785 99.5597 530.158 103.934C535.924 106.631 542.045 108.287 548.336 108.851C557.95 109.714 567.599 110.171 576.2 110.727L576.192 110.742Z" fill="#19362B"/>
<path d="M0 92.9162C5.37001 92.9162 10.5558 92.9019 15.7416 92.9447C16.1667 92.9447 16.7689 93.2659 16.9885 93.6227C20.4315 99.2386 25.5819 102.55 31.5541 104.876C40.5656 108.387 50.002 109.743 59.5519 110.285C67.6636 110.749 75.8107 110.949 83.9366 110.856C95.4275 110.727 106.869 109.864 118.02 106.767C122.752 105.454 127.3 103.684 130.871 100.088C135.412 95.5065 136.284 89.8192 135.802 83.6753C135.419 78.8371 133.761 74.6769 129.298 72.4291C126.55 71.0448 123.496 70.0743 120.471 69.4606C110.893 67.5196 101.138 67.5625 91.4248 67.2057C76.0516 66.6419 60.6712 66.1924 45.3121 65.386C37.3705 64.9721 29.4855 63.809 21.9972 60.7976C13.8784 57.5294 8.81305 51.7708 7.33949 42.9937C6.1493 35.9006 6.45393 28.9075 9.28063 22.2354C12.2632 15.1923 18.0016 10.9393 24.6751 7.8067C32.2767 4.23876 40.4239 2.78304 48.6631 1.73407C58.808 0.44248 69.0025 0.171317 79.2041 0.392529C91.354 0.656556 103.454 1.41296 115.285 4.57415C123.39 6.74345 130.991 9.94032 137.318 15.6276C141.972 19.8164 145.153 24.997 147.031 31.2908C144.813 31.2908 142.73 31.2908 140.64 31.2908C137.75 31.2908 134.852 31.3408 131.969 31.248C131.431 31.2338 130.666 30.7771 130.425 30.3061C127.619 24.9114 123.22 21.3934 117.751 19.0243C109.051 15.2637 99.8624 13.9578 90.5251 13.5083C83.051 13.1515 75.5627 12.9088 68.0816 12.9873C58.3688 13.0872 48.6702 13.7223 39.2408 16.3697C34.4942 17.7041 30.0522 19.6522 26.6092 23.4128C23.6904 26.5954 22.5356 30.4274 22.5569 34.6376C22.5711 37.5989 22.904 40.5532 24.3988 43.2077C26.4533 46.8399 29.7263 49.0021 33.6228 49.8013C39.432 50.9858 45.3192 52.2061 51.2135 52.52C69.633 53.5048 88.0739 54.0971 106.508 54.775C114.471 55.0676 122.391 55.6741 130.148 57.6222C134.803 58.7925 139.238 60.4765 143.127 63.388C147.555 66.7062 150.091 71.2446 150.977 76.6179C152.344 84.8741 152.216 93.0732 148.419 100.766C145.529 106.624 140.91 110.856 135.214 113.917C127.435 118.099 118.99 120.09 110.354 121.353C97.2553 123.272 84.057 123.672 70.8516 123.415C58.468 123.172 46.1268 122.323 34.0408 119.269C25.5253 117.121 17.4419 114.074 10.5062 108.437C5.5117 104.376 2.097 99.2743 0 92.8877L0 92.9162Z" fill="#19362B"/>
<path d="M1023.06 2.11227C1024.99 2.11227 1026.37 2.11227 1027.76 2.11227C1032.89 2.11227 1038.03 2.22645 1043.16 2.04805C1044.97 1.98383 1046.16 2.76877 1047.38 3.76779C1059.39 13.5796 1071.39 23.3914 1083.38 33.2175C1090.63 39.1546 1097.88 45.0916 1105.07 51.1072C1106.41 52.2346 1107.29 52.2132 1108.63 51.1072C1118.39 42.9865 1128.21 34.9444 1138.02 26.888C1147.69 18.9387 1157.35 10.9893 1167.04 3.06848C1167.56 2.64746 1168.25 2.16936 1168.86 2.16222C1175.81 2.098 1182.76 2.11941 1190.28 2.11941C1165.98 21.9 1142.1 41.3524 1118.06 60.919C1143.01 81.1777 1167.81 101.308 1193 121.767H1191.18C1184.75 121.767 1178.31 121.795 1171.88 121.724C1171.09 121.717 1170.17 121.338 1169.55 120.839C1159.02 112.304 1148.52 103.727 1138.04 95.1426C1129.46 88.1209 1120.91 81.0778 1112.34 74.0418C1110.88 72.843 1109.28 71.794 1107.96 70.4596C1106.6 69.0967 1105.65 69.532 1104.4 70.5738C1098.75 75.3192 1093.04 80.0003 1087.35 84.6957C1072.68 96.791 1058.02 108.886 1043.33 120.96C1042.83 121.374 1042.11 121.724 1041.48 121.724C1034.82 121.781 1028.14 121.759 1021.48 121.752C1021.27 121.752 1021.05 121.717 1020.44 121.667C1045.51 101.265 1070.28 81.0992 1095.29 60.7334C1071.25 41.224 1047.37 21.843 1023.07 2.11227H1023.06Z" fill="#19362B"/>
<path d="M367.244 2.1765H382.745V107.844H487.942V121.667H367.244V2.1765Z" fill="#19362B"/>
</g>
<defs>
<clipPath id="clip0_5_3937">
<rect width="1193" height="124" fill="white"/>
</clipPath>
</defs>
</svg>
