<svg width="156" height="17" viewBox="0 0 156 17" fill="none" xmlns="http://www.w3.org/2000/svg">
<g clip-path="url(#clip0_5_3939)" filter="url(#filter0_di_5_3939)">
<path d="M90.5104 16.7099V1.27249H90.7589C94.3625 1.27249 97.9651 1.26604 101.569 1.27525C103.087 1.27893 104.598 1.39679 106.068 1.81758C107.436 2.2089 108.62 2.87829 109.423 4.09829C109.975 4.93802 110.262 5.87996 110.353 6.86609C110.491 8.36048 110.521 9.86223 110.318 11.3539C110.153 12.5785 109.739 13.7073 108.852 14.617C108.271 15.2137 107.575 15.6299 106.802 15.9282C105.718 16.3471 104.587 16.5543 103.433 16.6178C102.386 16.6749 101.336 16.7016 100.287 16.7053C97.1293 16.7163 93.9704 16.709 90.8123 16.709C90.7203 16.709 90.6292 16.709 90.5104 16.709V16.7099ZM92.5336 15.0111H92.7609C95.5287 15.0111 98.2965 15.0212 101.064 15.0065C102.434 14.9991 103.798 14.8988 105.123 14.5056C105.996 14.2469 106.78 13.8463 107.375 13.1318C107.957 12.4339 108.186 11.5988 108.295 10.7259C108.44 9.57588 108.438 8.42033 108.295 7.2703C108.216 6.63498 108.068 6.01347 107.758 5.44168C107.189 4.39386 106.262 3.8193 105.157 3.48323C103.945 3.114 102.693 2.99522 101.437 2.98418C98.5395 2.96024 95.641 2.97313 92.7434 2.97129C92.6771 2.97129 92.61 2.97865 92.5336 2.98326V15.0111Z" fill="#84847F"/>
<path d="M34.2409 16.9999C32.8198 16.9189 31.3958 16.871 29.9783 16.7467C28.8085 16.6436 27.6708 16.3545 26.6169 15.8149C25.3964 15.1897 24.5358 14.2404 24.0709 12.9376C23.7515 12.0417 23.6172 11.1163 23.6098 10.1753C23.6015 9.07406 23.6089 7.97007 23.677 6.87161C23.7414 5.83208 24.0323 4.83858 24.6011 3.95189C25.2482 2.94274 26.1898 2.30005 27.2925 1.87098C28.4716 1.41244 29.705 1.1887 30.9595 1.13806C32.6053 1.07268 34.2538 1.04874 35.9005 1.05703C37.3953 1.0644 38.8846 1.1841 40.3343 1.59383C41.633 1.96121 42.7992 2.54682 43.6423 3.64804C44.1826 4.35426 44.5103 5.159 44.6521 6.02452C44.7653 6.71508 44.8269 7.42038 44.8426 8.12016C44.8647 9.06762 44.8665 10.0206 44.7956 10.9653C44.6843 12.4551 44.2526 13.8335 43.1296 14.9052C42.3003 15.6971 41.2851 16.1381 40.1934 16.4272C38.9306 16.7615 37.6392 16.8848 36.3377 16.9125C35.6409 16.9272 34.9432 16.9152 34.2455 16.9152C34.2446 16.9438 34.2428 16.9714 34.2418 16.9999H34.2409ZM34.2538 2.71624C33.2744 2.75491 32.2942 2.77516 31.3167 2.83685C30.3161 2.90039 29.3313 3.06796 28.3897 3.43351C27.6993 3.70145 27.1075 4.10013 26.6417 4.68573C26.0987 5.36894 25.8686 6.16907 25.7609 7.01065C25.6035 8.23709 25.6265 9.46999 25.725 10.6983C25.7765 11.3437 25.9137 11.9809 26.1935 12.5739C26.6942 13.6337 27.5548 14.2736 28.6409 14.6428C29.8872 15.0673 31.1832 15.1897 32.4866 15.2118C33.8267 15.2348 35.1678 15.221 36.508 15.1879C37.5333 15.1621 38.5486 15.0231 39.5372 14.734C41.309 14.2174 42.3638 13.0794 42.6565 11.2314C42.8213 10.1937 42.7937 9.15601 42.7743 8.1174C42.7633 7.54837 42.6906 6.97474 42.5847 6.414C42.3942 5.403 41.9055 4.55315 41.0485 3.95281C40.2413 3.38747 39.3126 3.13702 38.3553 2.97773C36.9976 2.75214 35.6271 2.73189 34.2529 2.71347L34.2538 2.71624Z" fill="#84847F"/>
<path d="M116.323 9.81804V15.0111H131.238V16.6952H114.298V1.28722H131.233V2.96668H116.325V8.11924H131.23V9.81711H116.324L116.323 9.81804Z" fill="#84847F"/>
<path d="M76.0401 0.999944C77.3094 1.05979 78.5962 1.09018 79.8774 1.1887C81.1329 1.28538 82.3553 1.55608 83.5049 2.10209C85.2068 2.91144 86.1383 4.28797 86.4816 6.10094C86.7228 7.37251 86.686 8.66064 86.651 9.94326C86.6317 10.6504 86.57 11.3649 86.4347 12.0582C86.0444 14.0452 84.8662 15.3877 82.9747 16.1123C81.8012 16.5617 80.577 16.7919 79.3307 16.8425C77.6702 16.9097 76.007 16.929 74.3456 16.9254C73.0588 16.9226 71.7748 16.8232 70.5147 16.535C69.4488 16.2919 68.4326 15.9328 67.549 15.2588C66.785 14.676 66.2558 13.9301 65.9161 13.0379C65.5609 12.1061 65.4219 11.1356 65.4219 10.1467C65.4219 9.09156 65.4035 8.03269 65.4743 6.98026C65.5719 5.53928 66.0063 4.2097 67.0538 3.14899C67.5996 2.59654 68.2578 2.20982 68.972 1.91886C70.0259 1.49071 71.1314 1.25868 72.2608 1.18041C73.5126 1.09386 74.7671 1.05795 76.0401 0.999023V0.999944ZM75.8615 15.2892C77.141 15.2229 78.2814 15.1842 79.4172 15.0977C80.3478 15.0268 81.2581 14.8297 82.1169 14.4448C83.1202 13.9955 83.8372 13.2736 84.2063 12.2286C84.4971 11.4045 84.591 10.5482 84.5993 9.68084C84.6104 8.48938 84.6453 7.29608 84.3269 6.12764C84.0498 5.10928 83.4874 4.30638 82.5697 3.77142C81.6116 3.2116 80.5457 3.00996 79.4632 2.88105C78.0292 2.71071 76.5869 2.71992 75.1482 2.75675C74.0805 2.78437 73.0109 2.86816 71.9487 2.98326C71.1047 3.07441 70.2883 3.31565 69.5436 3.74196C68.5035 4.33677 67.9209 5.25752 67.6723 6.41215C67.445 7.46826 67.4358 8.5391 67.4781 9.60903C67.5039 10.2692 67.5637 10.9349 67.6862 11.5831C67.9328 12.886 68.6628 13.8463 69.8805 14.4108C70.6297 14.7588 71.425 14.9724 72.2424 15.0452C73.4914 15.1566 74.745 15.2155 75.8625 15.2873L75.8615 15.2892Z" fill="#84847F"/>
<path d="M1 12.9891C1.6977 12.9891 2.37146 12.9873 3.04523 12.9928C3.10045 12.9928 3.17869 13.0342 3.20722 13.0803C3.65456 13.8049 4.32372 14.2321 5.09966 14.5323C6.27046 14.9853 7.49649 15.1603 8.73725 15.2302C9.79116 15.2901 10.8497 15.3159 11.9054 15.3039C13.3984 15.2873 14.8849 15.1759 16.3337 14.7763C16.9485 14.6069 17.5395 14.3785 18.0034 13.9145C18.5934 13.3234 18.7066 12.5895 18.644 11.7967C18.5943 11.1725 18.3789 10.6357 17.799 10.3456C17.4419 10.167 17.0452 10.0418 16.6521 9.96259C15.4077 9.71215 14.1403 9.71767 12.8783 9.67164C10.881 9.5989 8.88268 9.54089 6.88716 9.43684C5.85534 9.38344 4.83089 9.23335 3.85798 8.84479C2.80315 8.42309 2.14503 7.68004 1.95358 6.54751C1.79895 5.63227 1.83852 4.72993 2.20578 3.86902C2.59329 2.96024 3.33885 2.41146 4.20591 2.00725C5.19354 1.54687 6.25205 1.35904 7.32253 1.22369C8.6406 1.05703 9.96512 1.02204 11.2906 1.05059C12.8691 1.08465 14.4412 1.18225 15.9784 1.59015C17.0314 1.87006 18.019 2.28256 18.841 3.0164C19.4457 3.55689 19.859 4.22536 20.1029 5.03746C19.8148 5.03746 19.5442 5.03746 19.2726 5.03746C18.8971 5.03746 18.5206 5.04391 18.146 5.03194C18.0761 5.0301 17.9767 4.97117 17.9454 4.9104C17.5809 4.21431 17.0093 3.76037 16.2987 3.45468C15.1684 2.96944 13.9746 2.80095 12.7614 2.74294C11.7904 2.6969 10.8175 2.66559 9.84546 2.67572C8.58354 2.68861 7.32345 2.77056 6.09834 3.11216C5.48164 3.28434 4.90452 3.53571 4.45719 4.02095C4.07796 4.43161 3.92793 4.92605 3.93069 5.4693C3.93253 5.85141 3.97579 6.23261 4.17001 6.57513C4.43694 7.04379 4.86218 7.32278 5.36843 7.42591C6.12319 7.57875 6.88808 7.7362 7.65389 7.77672C10.047 7.90378 12.443 7.9802 14.838 8.06768C15.8725 8.10543 16.9016 8.18369 17.9095 8.43506C18.5142 8.58606 19.0904 8.80336 19.5957 9.17903C20.171 9.60718 20.5005 10.1928 20.6156 10.8861C20.7932 11.9514 20.7767 13.0094 20.2833 14.002C19.9078 14.7579 19.3076 15.3039 18.5676 15.6989C17.5569 16.2385 16.4598 16.4954 15.3378 16.6583C13.6359 16.906 11.9211 16.9576 10.2054 16.9244C8.59642 16.8931 6.99301 16.7836 5.42273 16.3895C4.31636 16.1123 3.26613 15.7192 2.36502 14.9918C1.71611 14.4679 1.27245 13.8095 1 12.9854L1 12.9891Z" fill="#84847F"/>
<path d="M133.92 1.27249C134.171 1.27249 134.351 1.27249 134.531 1.27249C135.198 1.27249 135.865 1.28722 136.532 1.2642C136.767 1.25591 136.922 1.3572 137.08 1.4861C138.64 2.75215 140.2 4.01819 141.758 5.28607C142.7 6.05214 143.642 6.81821 144.575 7.59441C144.75 7.73989 144.864 7.73713 145.038 7.59441C146.306 6.54659 147.583 5.50889 148.856 4.46936C150.113 3.44363 151.368 2.41791 152.627 1.39587C152.695 1.34155 152.784 1.27985 152.864 1.27893C153.767 1.27065 154.669 1.27341 155.647 1.27341C152.489 3.82575 149.387 6.33573 146.264 8.86045C149.505 11.4745 152.727 14.0719 156 16.7117H155.763C154.928 16.7117 154.092 16.7154 153.256 16.7062C153.154 16.7053 153.034 16.6565 152.953 16.592C151.586 15.4908 150.221 14.3841 148.859 13.2764C147.745 12.3704 146.634 11.4616 145.52 10.5537C145.33 10.399 145.123 10.2637 144.951 10.0915C144.774 9.91564 144.651 9.9718 144.489 10.1062C143.754 10.7185 143.013 11.3226 142.273 11.9284C140.368 13.4891 138.463 15.0498 136.555 16.6077C136.489 16.6611 136.395 16.7062 136.314 16.7062C135.448 16.7136 134.581 16.7108 133.715 16.7099C133.688 16.7099 133.66 16.7053 133.581 16.6989C136.837 14.0664 140.056 11.4644 143.305 8.83651C140.182 6.31916 137.079 3.81838 133.921 1.27249H133.92Z" fill="#84847F"/>
<path d="M48.714 1.28078H50.7279V14.9154H64.3956V16.6989H48.714V1.28078Z" fill="#84847F"/>
</g>
<defs>
<filter id="filter0_di_5_3939" x="0" y="0" width="156" height="16.9946" filterUnits="userSpaceOnUse" color-interpolation-filters="sRGB">
<feFlood flood-opacity="0" result="BackgroundImageFix"/>
<feColorMatrix in="SourceAlpha" type="matrix" values="0 0 0 0 0 0 0 0 0 0 0 0 0 0 0 0 0 0 127 0" result="hardAlpha"/>
<feOffset dx="-1" dy="-1"/>
<feComposite in2="hardAlpha" operator="out"/>
<feColorMatrix type="matrix" values="0 0 0 0 0 0 0 0 0 0 0 0 0 0 0 0 0 0 1 0"/>
<feBlend mode="normal" in2="BackgroundImageFix" result="effect1_dropShadow_5_3939"/>
<feBlend mode="normal" in="SourceGraphic" in2="effect1_dropShadow_5_3939" result="shape"/>
<feColorMatrix in="SourceAlpha" type="matrix" values="0 0 0 0 0 0 0 0 0 0 0 0 0 0 0 0 0 0 127 0" result="hardAlpha"/>
<feOffset dx="-1" dy="-1"/>
<feComposite in2="hardAlpha" operator="arithmetic" k2="-1" k3="1"/>
<feColorMatrix type="matrix" values="0 0 0 0 1 0 0 0 0 1 0 0 0 0 1 0 0 0 0.5 0"/>
<feBlend mode="normal" in2="shape" result="effect2_innerShadow_5_3939"/>
</filter>
<clipPath id="clip0_5_3939">
<rect width="155" height="15.9946" fill="white" transform="translate(1 1)"/>
</clipPath>
</defs>
</svg>
